<?xml version="1.0" encoding="UTF-8"?>
<svg id="Layer_2" data-name="Layer 2" xmlns="http://www.w3.org/2000/svg" viewBox="0 0 1138.77 120">
  <defs>
    <style>
      .cls-1 {
        fill: #1a0000;
      }
    </style>
  </defs>
  <g id="Layer_1-2" data-name="Layer 1">
    <g>
      <path class="cls-1" d="m609.4,52.75c1.4-1.2,2.1-2.93,2.1-5.2s-.7-4-2.1-5.2c-1.4-1.2-3.37-1.8-5.9-1.8h-17.2v14h17.2c2.53,0,4.5-.6,5.9-1.8Z"/>
      <path class="cls-1" d="m640,0H0v120h661V0h-21ZM96.9,86.15c-3.27,4.13-7.85,7.35-13.75,9.65s-12.78,3.45-20.65,3.45-15.27-1.1-21.4-3.3c-6.13-2.2-10.92-5.3-14.35-9.3-3.43-4-5.22-8.63-5.35-13.9h26.2c.27,1.47,1.03,2.72,2.3,3.75,1.27,1.03,3,1.83,5.2,2.4,2.2.57,4.83.85,7.9.85,4,0,7.12-.4,9.35-1.2,2.23-.8,3.35-2.1,3.35-3.9,0-1.2-.63-2.22-1.9-3.05-1.27-.83-3.87-1.38-7.8-1.65l-12.4-.8c-11.27-.73-19.4-3.13-24.4-7.2-5-4.06-7.5-9.43-7.5-16.1,0-5.6,1.6-10.27,4.8-14,3.2-3.73,7.68-6.53,13.45-8.4,5.77-1.87,12.52-2.8,20.25-2.8s14.22,1.05,20.05,3.15c5.83,2.1,10.46,5.05,13.9,8.85,3.43,3.8,5.31,8.23,5.65,13.3h-26.2c-.2-1.2-.85-2.23-1.95-3.1-1.1-.87-2.65-1.53-4.65-2-2-.46-4.43-.7-7.3-.7-3.67,0-6.55.37-8.65,1.1-2.1.73-3.15,1.93-3.15,3.6,0,1.13.62,2.1,1.85,2.9,1.23.8,3.62,1.33,7.15,1.6l14,.9c7.33.47,13.27,1.55,17.8,3.25,4.53,1.7,7.85,4.05,9.95,7.05s3.15,6.7,3.15,11.1c0,5.53-1.63,10.37-4.9,14.5Zm101.5,11.3h-32.3l-30.2-46.92v46.92h-25V22.45h33.3l29.2,45.33V22.45h25v75Zm82.6,0h-72.6l5.5-37.5-5.5-37.5h72.1v20.4h-44.82l1.35,8.2h40.27v17.8h-40.27l-1.35,8.2h45.32v20.4Zm75.6,0l-5.13-12.6h-34.94l-5.13,12.6h-27.5l32.9-75h34.4l32.9,75h-27.5Zm88.4,0l-13.05-23.44-18.75,23.44h-23.4V22.45h25.6v40.79l30.8-40.79h27l-25.02,31.28,26.02,43.72h-29.2Zm104.9,0h-72.6l5.5-37.5-5.5-37.5h72.1v20.4h-44.82l1.35,8.2h40.27v17.8h-40.27l-1.35,8.2h45.32v20.4Zm61.1,0l-17.02-25h-7.68v25h-25.8V22.45h47c6,0,11.25,1.05,15.75,3.15s8,5.02,10.5,8.75c2.5,3.73,3.75,8.13,3.75,13.2s-1.25,9.28-3.75,13.05c-2.5,3.77-6,6.68-10.5,8.75-.67.31-1.37.59-2.08.85l19.33,27.25h-29.5Z"/>
      <polygon class="cls-1" points="324.88 64.35 343.12 64.35 334 41.95 324.88 64.35"/>
    </g>
    <g>
      <path class="cls-1" d="m708.17,54.55h25.2c2.53,0,4.5-.6,5.9-1.8s2.1-2.93,2.1-5.2-.7-4-2.1-5.2c-1.4-1.2-3.37-1.8-5.9-1.8h-28.8l11.6-11.6v68.5h-25.8V22.45h47c6,0,11.25,1.05,15.75,3.15,4.5,2.1,8,5.02,10.5,8.75,2.5,3.73,3.75,8.13,3.75,13.2s-1.25,9.29-3.75,13.05c-2.5,3.77-6,6.68-10.5,8.75s-9.75,3.1-15.75,3.1h-29.2v-17.9Zm8.8,7.8h28.5l24.9,35.1h-29.5l-23.9-35.1Z"/>
      <path class="cls-1" d="m806.07,59.95l-4.6,27.9-9.8-10.8h56.9v20.4h-72.6l5.5-37.5-5.5-37.5h72.1v20.4h-56.4l9.8-10.8,4.6,27.9Zm38.8-8.9v17.8h-56.5v-17.8h56.5Z"/>
      <path class="cls-1" d="m854.77,22.45h79.8v23h-79.8v-23Zm27,11.1h25.8v63.9h-25.8v-63.9Z"/>
      <path class="cls-1" d="m992.37,22.45l32.9,75h-27.5l-25.9-63.6h6.6l-25.9,63.6h-27.5l32.9-75h34.4Zm-43.2,62.4v-20.5h51.1v20.5h-51.1Z"/>
      <path class="cls-1" d="m1030.97,22.45h25.8v75h-25.8V22.45Z"/>
      <path class="cls-1" d="m1094.57,22.45v63.6l-11.6-11.6h55.8v23h-70V22.45h25.8Z"/>
    </g>
  </g>
</svg>